<svg width="48" height="48" viewBox="0 0 48 48" fill="none" xmlns="http://www.w3.org/2000/svg">
<path d="M23.5106 26.5172C14.6716 19.5835 13.1102 11.7008 19.2835 7.59371C24.2221 4.30805 28.9967 8.34122 30.0256 10.6686C31.2663 7.20169 37.4699 3.23931 42.1227 8.68801C48.6365 16.3162 36.1521 26.5172 35.6406 27.0617C35.1292 27.6061 31.8867 30.3143 30.0256 31.4699L27.2341 29.9841" stroke="#303030" stroke-width="2" stroke-linejoin="bevel"/>
<path d="M11.7173 41.0809L17.4038 37.0191H23.0903L33.2447 23.6153C33.5155 22.2614 33.1634 19.8785 29.5891 21.1783L23.0903 27.677L19.0285 28.4894V25.6461L20.6532 23.6153M16.1853 18.335L9.68647 24.8338L4 34.1758" stroke="#303030" stroke-width="2"/>
</svg>
