<svg width="48" height="48" viewBox="0 0 48 48" fill="none" xmlns="http://www.w3.org/2000/svg">
<path d="M9.33681 23.9995L9.33681 16.9596L7.53125 12.9598L7.53125 5.05262C7.53125 5.05262 8.18782 4 8.84439 4C9.50096 4 10.1575 5.05262 10.1575 5.05262C10.1575 5.05262 10.9782 4 11.6348 4C12.2914 4 12.9479 5.05262 12.9479 5.05262C12.9479 5.05262 13.6373 4 14.4252 4C15.2131 4 15.7384 5.05262 15.7384 5.05262C15.7384 5.05262 16.3949 4 17.0515 4C17.7081 4 18.3646 5.05262 18.3646 5.05262L18.3646 11.1998" stroke="#303030" stroke-width="2" stroke-linecap="square" stroke-linejoin="bevel"/>
<path d="M17.5312 23.9994L17.5312 17.2587C18.6424 16.2658 20.8646 13.9667 20.8646 12.7126C20.8646 11.4585 20.8646 9.68186 20.8646 8.95031L20.0313 8.1665" stroke="#303030" stroke-width="2" stroke-linecap="square"/>
<path d="M24.0003 9.33581L31.0402 9.33581L35.0401 7.53027L42.9474 7.53027C42.9474 7.53027 44 8.18683 44 8.84339C44 9.49995 42.9474 10.1565 42.9474 10.1565C42.9474 10.1565 44 10.9772 44 11.6338C44 12.2903 42.9474 12.9469 42.9474 12.9469C42.9474 12.9469 44 13.6363 44 14.4241C44 15.212 42.9474 15.7373 42.9474 15.7373C42.9474 15.7373 44 16.3938 44 17.0504C44 17.7069 42.9474 18.3635 42.9474 18.3635L36.8001 18.3635" stroke="#303030" stroke-width="2" stroke-linecap="square" stroke-linejoin="bevel"/>
<path d="M24.1959 17.3335L30.9368 17.3335C31.9297 18.4446 34.2289 20.6667 35.4831 20.6667C36.7372 20.6667 38.5139 20.6667 39.2455 20.6667L40.0293 19.8334" stroke="#303030" stroke-width="2" stroke-linecap="square"/>
<path d="M38.6671 24.0001L38.6671 31.0399L40.4727 35.0398L40.4727 42.9469C40.4727 42.9469 39.8161 43.9995 39.1595 43.9995C38.5029 43.9995 37.8464 42.9469 37.8464 42.9469C37.8464 42.9469 37.0257 43.9995 36.3691 43.9995C35.7125 43.9995 35.056 42.9469 35.056 42.9469C35.056 42.9469 34.3666 43.9995 33.5787 43.9995C32.7908 43.9995 32.2655 42.9469 32.2655 42.9469C32.2655 42.9469 31.609 43.9995 30.9524 43.9995C30.2958 43.9995 29.6393 42.9469 29.6393 42.9469L29.6393 36.7997" stroke="#303030" stroke-width="2" stroke-linecap="square" stroke-linejoin="bevel"/>
<path d="M31.6953 24.0008L31.6953 31.0963C30.3064 32.1414 27.5286 34.5615 27.5286 35.8816C27.5286 37.2017 27.5286 39.0719 27.5286 39.8419L28.5703 40.667" stroke="#303030" stroke-width="2" stroke-linecap="square"/>
<path d="M23.9997 38.6632L16.9598 38.6632L12.9599 40.4688L5.05264 40.4688C5.05264 40.4688 4 39.8122 4 39.1556C4 38.4991 5.05264 37.8425 5.05264 37.8425C5.05264 37.8425 4 37.0218 4 36.3653C4 35.7087 5.05264 35.0521 5.05264 35.0521C5.05264 35.0521 4 34.3627 4 33.5749C4 32.787 5.05264 32.2618 5.05264 32.2618C5.05264 32.2618 4 31.6052 4 30.9486C4 30.2921 5.05264 29.6355 5.05264 29.6355L11.1999 29.6355" stroke="#303030" stroke-width="2" stroke-linecap="square" stroke-linejoin="bevel"/>
<path d="M24.196 31.5005L17.1003 31.5005C16.0552 30.1116 13.6349 27.3339 12.3148 27.3339C10.9947 27.3339 9.12446 27.3339 8.35438 27.3339L7.5293 28.3756" stroke="#303030" stroke-width="2" stroke-linecap="square"/>
</svg>
