<svg width="48" height="48" viewBox="0 0 48 48" fill="none" xmlns="http://www.w3.org/2000/svg">
<path d="M4 35.9148L12.8889 27.0259" stroke="#303030" stroke-width="2" stroke-linejoin="bevel"/>
<path d="M17.5039 41.7266L24.6834 34.5471H29.2988L42.1193 21.7266C42.3472 21.2137 42.5637 19.9488 41.6065 18.9915C40.6492 18.0343 40 18.5 39.0424 18.9915C39.3273 18.3077 39.8629 16.3932 39.0424 15.5726C38.2219 14.7521 37.0698 14.7721 36.5 15C36.5 15 37.7774 13.1112 36.8201 12.1539C35.8629 11.1966 34.3989 11.386 34 11.5C34.3419 10.8162 35.2475 9.04271 34.427 8.2222C33.4013 7.19656 32 7 30.8372 8.05126M30.8372 8.05126L25.0253 13.8632M30.8372 8.05126L28.4441 6H20.5808C20.182 6.96865 19.7945 9.14526 21.4355 10.1026C23.0766 11.0599 25.0823 10.7294 25.88 10.4444" stroke="#303030" stroke-width="2" stroke-linejoin="bevel"/>
<path d="M37.5 20.5L39 19" stroke="#303030" stroke-width="2" stroke-linejoin="bevel"/>
<path d="M35 16.5L36.5 15" stroke="#303030" stroke-width="2" stroke-linejoin="bevel"/>
<path d="M32 13.5L34 11.5" stroke="#303030" stroke-width="2" stroke-linejoin="bevel"/>
<path d="M44.0001 33.1798L39.7266 28.9062" stroke="#303030" stroke-width="2" stroke-linejoin="bevel"/>
<rect x="9.07031" y="21.4142" width="5.29511" height="3.75595" rx="1" transform="rotate(45 9.07031 21.4142)" stroke="#303030" stroke-width="2"/>
<rect x="12.0703" y="17.4142" width="8.89214" height="3.75595" rx="1" transform="rotate(45 12.0703 17.4142)" stroke="#303030" stroke-width="2"/>
<rect x="15.0703" y="13.4142" width="11.9446" height="3.75595" rx="1" transform="rotate(45 15.0703 13.4142)" stroke="#303030" stroke-width="2"/>
<rect x="18.0703" y="9.41421" width="14.771" height="3.75595" rx="1" transform="rotate(45 18.0703 9.41421)" stroke="#303030" stroke-width="2"/>
</svg>
