<svg width="48" height="48" viewBox="0 0 48 48" fill="none" xmlns="http://www.w3.org/2000/svg">
<path d="M37.8379 8.60892C35.1851 7.19787 28.762 5.56106 24.2918 10.3022L18.0267 16.2285C17.5187 16.9058 16.8075 18.5314 18.0267 19.6151C19.5506 20.9697 21.9214 19.9537 24.6306 17.0752H29.3717L32.7583 13.6886M42.0712 12.6727C43.7081 15.2126 46.4289 20.3184 39.5203 27.2269" stroke="#303030" stroke-width="2" stroke-linejoin="bevel"/>
<path d="M23.9529 10.6402C21.2436 7.87453 13.4203 4.40316 7.86651 9.95713C2.31233 15.5115 3.12568 21.1384 7.86683 25.8795" stroke="#303030" stroke-width="2" stroke-linejoin="bevel"/>
<path d="M9.20875 29.4241L8.21686 28.4322C7.55559 27.7709 7.55559 26.6988 8.21686 26.0376L10.394 23.8604C11.0553 23.1991 12.1274 23.1991 12.7887 23.8604L13.7806 24.8523C14.4418 25.5135 14.4418 26.5857 13.7806 27.2469L11.6034 29.4241C10.9421 30.0853 9.87001 30.0853 9.20875 29.4241Z" stroke="#303030" stroke-width="2" stroke-linejoin="bevel"/>
<path d="M12.5955 32.6414L11.6036 31.6495C10.9423 30.9882 10.9423 29.9161 11.6036 29.2548L13.7808 27.0777C14.442 26.4164 15.5141 26.4164 16.1754 27.0777L17.1673 28.0696C17.8285 28.7308 17.8285 29.8029 17.1673 30.4642L14.9901 32.6414C14.3288 33.3026 13.2567 33.3026 12.5955 32.6414Z" stroke="#303030" stroke-width="2" stroke-linejoin="bevel"/>
<path d="M15.9822 35.8582L14.9903 34.8663C14.329 34.205 14.329 33.1329 14.9903 32.4716L17.1675 30.2945C17.8287 29.6332 18.9008 29.6332 19.5621 30.2945L20.554 31.2864C21.2153 31.9476 21.2153 33.0197 20.554 33.681L18.3768 35.8582C17.7156 36.5194 16.6434 36.5194 15.9822 35.8582Z" stroke="#303030" stroke-width="2" stroke-linejoin="bevel"/>
<path d="M19.3709 39.0755L18.379 38.0836C17.7177 37.4223 17.7177 36.3502 18.379 35.6889L20.5561 33.5118C21.2174 32.8505 22.2895 32.8505 22.9508 33.5118L23.9427 34.5036C24.6039 35.1649 24.6039 36.237 23.9427 36.8983L21.7655 39.0755C21.1042 39.7367 20.0321 39.7367 19.3709 39.0755Z" stroke="#303030" stroke-width="2" stroke-linejoin="bevel"/>
<path d="M29.2017 17.0747L38.4671 26.3401C39.2469 27.1199 39.2623 28.3795 38.5017 29.1782L37.9324 29.7759C37.1398 30.6081 35.8154 30.618 35.0106 29.7977L27.6777 22.3238" stroke="#303030" stroke-width="2" stroke-linejoin="bevel"/>
<path d="M25.815 20.4614L35.0804 29.7268C35.8602 30.5067 35.8756 31.7662 35.115 32.5649L34.5457 33.1627C33.7531 33.9948 32.4287 34.0047 31.6239 33.1844L24.291 25.7105" stroke="#303030" stroke-width="2" stroke-linejoin="bevel"/>
<path d="M22.4282 23.8481L31.6936 33.1135C32.4735 33.8934 32.4889 35.153 31.7282 35.9516L31.1589 36.5494C30.3664 37.3816 29.042 37.3914 28.2372 36.5711L20.9043 29.0972" stroke="#303030" stroke-width="2" stroke-linejoin="bevel"/>
<path d="M19.041 27.2344L28.1896 36.3829C29.0145 37.2078 28.9769 38.5563 28.1074 39.3341L27.6056 39.783C26.8118 40.493 25.6046 40.4697 24.8388 39.7296L22.6237 37.5888" stroke="#303030" stroke-width="2" stroke-linejoin="bevel"/>
</svg>
