<svg width="48" height="48" viewBox="0 0 48 48" fill="none" xmlns="http://www.w3.org/2000/svg">
<path d="M42.3403 43.5021L33.3777 35.2033C32.6584 26.6279 30.5229 9.44398 27.7345 9.3112C24.249 9.14523 25.5768 16.9461 25.7428 20.9295M31.2197 43.5021L25.4106 38.3568V24.2489C25.5766 23.8063 26.2073 22.9211 27.4023 22.9211C28.5973 22.9211 29.0067 23.8063 29.062 24.2489L29.56 34.5394" stroke="#303030" stroke-width="2" stroke-linejoin="bevel"/>
<path d="M6.32373 43.5021L15.2864 35.2033C16.0056 26.6279 18.1412 9.44398 20.9295 9.3112C24.415 9.14523 23.0872 16.9461 22.9212 20.9295M17.4443 43.5021L23.2535 38.3568V24.2489C23.0875 23.8063 22.4568 22.9211 21.2618 22.9211C20.0668 22.9211 19.6573 23.8063 19.602 24.2489L19.1041 34.5394" stroke="#303030" stroke-width="2" stroke-linejoin="bevel"/>
<path d="M24.082 4V7.15353" stroke="#303030" stroke-width="2" stroke-linejoin="bevel"/>
<path d="M34.3725 6.9873L32.2148 10.4728" stroke="#303030" stroke-width="2" stroke-linejoin="bevel"/>
<path d="M13.6275 6.9873L15.7852 10.4728" stroke="#303030" stroke-width="2" stroke-linejoin="bevel"/>
<path d="M6.98828 14.1245L14.4572 18.6058" stroke="#303030" stroke-width="2" stroke-linejoin="bevel"/>
<path d="M41.3438 14.1245L33.8749 18.6058" stroke="#303030" stroke-width="2" stroke-linejoin="bevel"/>
<path d="M35.2031 24.083H43.9998" stroke="#303030" stroke-width="2" stroke-linejoin="bevel"/>
<path d="M4 24.083H12.7967" stroke="#303030" stroke-width="2" stroke-linejoin="bevel"/>
<path d="M12.4655 30.7222L7.32031 33.8757M36.034 30.7222L41.3452 33.8757" stroke="#303030" stroke-width="2" stroke-linejoin="bevel"/>
</svg>
