<svg width="33" height="32" viewBox="0 0 33 32" fill="none" xmlns="http://www.w3.org/2000/svg">
<path fill-rule="evenodd" clip-rule="evenodd" d="M15.834 29.2962L15.834 15.9629L17.1673 15.9629L17.1673 29.2962L15.834 29.2962Z" fill="#818181"/>
<path fill-rule="evenodd" clip-rule="evenodd" d="M13.2296 3.29752C12.9175 3.28275 12.6039 3.39565 12.3283 3.66027C12.1339 3.84686 12.0462 4.011 12.0092 4.14706C11.9723 4.28245 11.9733 4.43479 12.0267 4.6179C12.141 5.01047 12.4785 5.48441 13.028 6.01176C13.8036 6.75608 14.8485 7.46714 15.7895 8.06551C15.6158 5.84232 14.9765 4.50765 14.31 3.84474C13.9253 3.46216 13.5453 3.31246 13.2296 3.29752ZM15.2503 2.89941C16.3895 4.03255 17.1689 6.15269 17.1689 9.29623L16.1506 9.86263C16.0778 9.81739 16.0017 9.77033 15.9228 9.72154C14.8418 9.05266 13.2352 8.05859 12.1048 6.97377C11.5036 6.39676 10.96 5.72384 10.7465 4.9907C10.6359 4.61097 10.6113 4.20574 10.7227 3.79681C10.8338 3.38856 11.0682 3.02163 11.405 2.69835C11.9235 2.20058 12.5866 1.93227 13.2926 1.96568C13.9949 1.99892 14.6746 2.3268 15.2503 2.89941Z" fill="#818181"/>
<path fill-rule="evenodd" clip-rule="evenodd" d="M19.7743 3.29752C20.0864 3.28275 20.4 3.39565 20.6757 3.66027C20.87 3.84686 20.9577 4.011 20.9947 4.14706C21.0316 4.28245 21.0306 4.43479 20.9772 4.6179C20.8629 5.01047 20.5254 5.48441 19.9759 6.01176C19.2003 6.75608 18.1554 7.46714 17.2144 8.06551C17.3881 5.84232 18.0274 4.50765 18.6939 3.84474C19.0786 3.46216 19.4586 3.31246 19.7743 3.29752ZM17.7536 2.89941C16.6144 4.03255 15.835 6.15269 15.835 9.29623L16.8533 9.86263C16.9261 9.81739 17.0022 9.77033 17.0811 9.72154C18.1621 9.05266 19.7687 8.05859 20.8991 6.97377C21.5003 6.39676 22.0439 5.72384 22.2574 4.9907C22.368 4.61097 22.3926 4.20574 22.2812 3.79681C22.1701 3.38856 21.9358 3.02163 21.599 2.69835C21.0804 2.20058 20.4173 1.93227 19.7113 1.96568C19.009 1.99892 18.3293 2.3268 17.7536 2.89941Z" fill="#818181"/>
<path fill-rule="evenodd" clip-rule="evenodd" d="M28.5013 9.88851H4.5013V14.6292H28.5013V9.88851ZM3.16797 8.55518V15.9626H29.8346V8.55518H3.16797Z" fill="#818181"/>
<path fill-rule="evenodd" clip-rule="evenodd" d="M26.2795 15.8148H6.72396V28.7037H26.2795V15.8148ZM5.39062 14.4814V30.037H27.6128V14.4814H5.39062Z" fill="#818181"/>
</svg>
