<svg width="48" height="48" viewBox="0 0 48 48" fill="none" xmlns="http://www.w3.org/2000/svg">
<path d="M30.2012 41.9403V35.8265L38.0617 28.6647C38.3528 28.5483 39.1796 28.5599 40.1578 29.5381C41.136 30.5163 41.1477 31.3431 41.0312 31.6342L36.4896 36.5252M37.0136 41.2415L44.0008 33.381V20.4548C43.8843 19.8725 43.337 18.708 42.0793 18.708C40.8216 18.708 40.0414 19.8725 39.8085 20.4548V27.0926" stroke="#303030" stroke-width="2" stroke-linejoin="bevel"/>
<path d="M17.7988 41.9403V35.8265L9.93831 28.6647C9.64718 28.5483 8.82037 28.5599 7.84217 29.5381C6.86397 30.5163 6.85233 31.3431 6.96878 31.6342L11.5104 36.5252M10.9864 41.2415L3.99925 33.381V20.4548C4.1157 19.8725 4.66303 18.708 5.92071 18.708C7.17839 18.708 7.95862 19.8725 8.19153 20.4548V27.0926" stroke="#303030" stroke-width="2" stroke-linejoin="bevel"/>
<path d="M14.6493 7.8005L15.1302 8.67725L14.6493 7.8005ZM24.0891 9.86982L23.3844 10.5793L24.0891 11.2793L24.7938 10.5793L24.0891 9.86982ZM12.0213 18.0661L11.0693 18.3721L11.0846 18.4198L11.1046 18.4658L12.0213 18.0661ZM24.0891 30.6451L23.6444 31.5408L24.0891 31.7616L24.5338 31.5408L24.0891 30.6451ZM36.1569 18.0661L37.0736 18.4658L37.0936 18.4198L37.1089 18.3721L36.1569 18.0661ZM33.5289 7.8005L33.0479 8.67725V8.67725L33.5289 7.8005ZM15.1302 8.67725C16.9014 7.70568 18.6701 7.90037 20.1899 8.50495C21.7289 9.11718 22.9231 10.1211 23.3844 10.5793L24.7938 9.16036C24.2062 8.57667 22.7921 7.38768 20.9291 6.6466C19.047 5.89787 16.6201 5.57885 14.1684 6.92374L15.1302 8.67725ZM12.9733 17.7601C12.533 16.39 12.0687 14.6376 12.2267 12.9581C12.3779 11.351 13.0956 9.79335 15.1302 8.67725L14.1684 6.92374C11.483 8.39676 10.4411 10.5856 10.2355 12.7708C10.0368 14.8837 10.6185 16.9695 11.0693 18.3721L12.9733 17.7601ZM24.5338 29.7495C22.6727 28.8254 20.2705 26.969 18.0598 24.7201C15.8492 22.4712 13.9216 19.9225 12.938 17.6664L11.1046 18.4658C12.224 21.0332 14.3341 23.7829 16.6336 26.1221C18.933 28.4613 21.5131 30.4826 23.6444 31.5408L24.5338 29.7495ZM24.5338 31.5408C26.6651 30.4826 29.2452 28.4613 31.5446 26.1221C33.8441 23.7829 35.9542 21.0332 37.0736 18.4658L35.2402 17.6664C34.2566 19.9225 32.329 22.4712 30.1183 24.7201C27.9077 26.969 25.5054 28.8254 23.6444 29.7495L24.5338 31.5408ZM37.1089 18.3721C37.5597 16.9695 38.1414 14.8837 37.9427 12.7708C37.7371 10.5856 36.6952 8.39676 34.0098 6.92374L33.0479 8.67725C35.0826 9.79336 35.8002 11.351 35.9514 12.9581C36.1094 14.6376 35.6452 16.39 35.2049 17.7601L37.1089 18.3721ZM34.0098 6.92374C31.5581 5.57885 29.1312 5.89787 27.2491 6.6466C25.3861 7.38768 23.972 8.57667 23.3844 9.16036L24.7938 10.5793C25.2551 10.1211 26.4493 9.11718 27.9883 8.50495C29.5081 7.90037 31.2767 7.70568 33.0479 8.67725L34.0098 6.92374Z" fill="#303030"/>
</svg>
