<svg width="48" height="48" viewBox="0 0 48 48" fill="none" xmlns="http://www.w3.org/2000/svg">
<path d="M12.2447 34.6514H4.79297" stroke="#303030" stroke-width="2" stroke-linejoin="bevel"/>
<path d="M12.8779 36.396L7.96289 38.6159M14.939 37.5059L12.2437 41.1529" stroke="#303030" stroke-width="2" stroke-linejoin="bevel"/>
<path d="M6.69141 8.1709L16.6799 18.1604" stroke="#303030" stroke-width="2" stroke-linejoin="bevel"/>
<path d="M5.73828 11.1831L15.7268 21.1726" stroke="#303030" stroke-width="2" stroke-linejoin="bevel"/>
<path d="M5.73828 15.1465L15.7268 25.136" stroke="#303030" stroke-width="2" stroke-linejoin="bevel"/>
<path d="M29.3815 22.2831H35.2385C33.9701 19.0061 30.1967 13.6889 25.25 18.6361" stroke="#303030" stroke-width="2" stroke-linejoin="bevel"/>
<path d="M23.5014 17.5265L19.3792 7.21989C18.2165 7.64272 15.8911 9.28121 15.8911 12.4525M25.0869 21.9663L7.96373 5C4.52853 9.38692 1.74865 20.888 18.1108 31.7972H4C4.21142 35.2327 6.88563 42.1672 15.8911 42.4209L18.1108 37.0298C22.233 36.9241 29.8405 33.4634 29.7136 21.6662" stroke="#303030" stroke-width="2" stroke-linejoin="bevel"/>
<ellipse cx="29.5229" cy="18.7954" rx="0.634192" ry="0.634253" fill="#303030"/>
<path d="M36.6834 19.8984C36.0413 18.3288 35.6989 15.1042 39.4657 14.7617C40.3218 16.1172 40.9639 19.0423 36.6834 19.8984ZM36.6834 19.8984L35.6133 21.6106" stroke="#303030" stroke-width="2" stroke-linejoin="bevel"/>
<path d="M37.8483 21.895C38.8865 20.5541 41.5079 18.6452 43.6879 21.7362C42.9421 23.1554 40.73 25.174 37.8483 21.895ZM37.8483 21.895L35.8305 21.8243" stroke="#303030" stroke-width="2" stroke-linejoin="bevel"/>
<path d="M36.4442 23.4878C38.1245 23.7165 41.0884 25.0323 39.5015 28.4657C37.8996 28.5294 35.0454 27.6229 36.4442 23.4878ZM36.4442 23.4878L35.4965 21.705" stroke="#303030" stroke-width="2" stroke-linejoin="bevel"/>
</svg>
