<svg width="24" height="24" viewBox="0 0 24 24" fill="none" xmlns="http://www.w3.org/2000/svg">
<path fill-rule="evenodd" clip-rule="evenodd" d="M9 2H15L16 3H21V5H3V3H8L9 2ZM6 7V20H18V19.9899V19.9542V19.9187V19.8831V19.8476V19.8122V19.7768V19.7414V19.7062V19.6709V19.6357V19.6006V19.5655V19.5305V19.4955V19.4605V19.4257V19.3908V19.356V19.3213V19.2866V19.2519V19.2173V19.1828V19.1483V19.1138V19.0794V19.045V19.0107V18.9764V18.9422V18.908V18.8738V18.8397V18.8057V18.7717V18.7377V18.7038V18.6699V18.6361V18.6023V18.5685V18.5348V18.5011V18.4675V18.4339V18.4003V18.3668V18.3334V18.2999V18.2666V18.2332V18.1999V18.1666V18.1334V18.1002V18.0671V18.0339V18.0009V17.9678V17.9348V17.9019V17.8689V17.836V17.8032V17.7704V17.7376V17.7048V17.6721V17.6394V17.6068V17.5742V17.5416V17.5091V17.4766V17.4441V17.4116V17.3792V17.3469V17.3145V17.2822V17.2499V17.2177V17.1855V17.1533V17.1211V17.089V17.0569V17.0248V16.9928V16.9608V16.9288V16.8969V16.865V16.8331V16.8012V16.7694V16.7376V16.7058V16.674V16.6423V16.6106V16.5789V16.5473V16.5157V16.4841V16.4525V16.421V16.3894V16.358V16.3265V16.295V16.2636V16.2322V16.2008V16.1695V16.1382V16.1068V16.0756V16.0443V16.0131V15.9818V15.9506V15.9195V15.8883V15.8572V15.826V15.7949V15.7639V15.7328V15.7018V15.6707V15.6397V15.6088V15.5778V15.5468V15.5159V15.485V15.4541V15.4232V15.3924V15.3615V15.3307V15.2999V15.2691V15.2383V15.2075V15.1767V15.146V15.1153V15.0846V15.0539V15.0232V14.9925V14.9618V14.9312V14.9005V14.8699V14.8393V14.8087V14.7781V14.7475V14.717V14.6864V14.6559V14.6253V14.5948V14.5643V14.5338V14.5033V14.4728V14.4423V14.4118V14.3813V14.3509V14.3204V14.29V14.2595V14.2291V14.1987V14.1683V14.1379V14.1074V14.077V14.0466V14.0162V13.9859V13.9555V13.9251V13.8947V13.8643V13.834V13.8036V13.7732V13.7429V13.7125V13.6821V13.6518V13.6214V13.5911V13.5607V13.5304V13.5V13.4696V13.4393V13.4089V13.3786V13.3482V13.3179V13.2875V13.2571V13.2268V13.1964V13.166V13.1357V13.1053V13.0749V13.0445V13.0141V12.9838V12.9534V12.923V12.8926V12.8621V12.8317V12.8013V12.7709V12.7405V12.71V12.6796V12.6491V12.6187V12.5882V12.5577V12.5272V12.4967V12.4662V12.4357V12.4052V12.3747V12.3441V12.3136V12.283V12.2525V12.2219V12.1913V12.1607V12.1301V12.0995V12.0688V12.0382V12.0075V11.9768V11.9461V11.9154V11.8847V11.854V11.8233V11.7925V11.7617V11.7309V11.7001V11.6693V11.6385V11.6076V11.5768V11.5459V11.515V11.4841V11.4532V11.4222V11.3912V11.3603V11.3293V11.2982V11.2672V11.2361V11.2051V11.174V11.1428V11.1117V11.0805V11.0494V11.0182V10.9869V10.9557V10.9244V10.8932V10.8618V10.8305V10.7992V10.7678V10.7364V10.705V10.6735V10.642V10.6106V10.579V10.5475V10.5159V10.4843V10.4527V10.4211V10.3894V10.3577V10.326V10.2942V10.2624V10.2306V10.1988V10.1669V10.135V10.1031V10.0712V10.0392V10.0072V9.97517V9.9431V9.91101V9.87888V9.84673V9.81454V9.78233V9.75008V9.7178V9.68549V9.65314V9.62077V9.58836V9.55592V9.52344V9.49094V9.4584V9.42582V9.39321V9.36057V9.32789V9.29517V9.26243V9.22964V9.19682V9.16397V9.13107V9.09815V9.06518V9.03218V8.99914V8.96606V8.93294V8.89979V8.8666V8.83337V8.8001V8.76679V8.73345V8.70006V8.66663V8.63316V8.59966V8.56611V8.53252V8.49889V8.46522V8.4315V8.39775V8.36395V8.33011V8.29623V8.2623V8.22833V8.19432V8.16026V8.12616V8.09202V8.05783V8.02359V7.98931V7.95499V7.92062V7.8862V7.85174V7.81723V7.78267V7.74807V7.71342V7.67872V7.64398V7.60918V7.57434V7.53945V7.50451V7.46952V7.43449V7.3994V7.36426V7.32908V7.29384V7.25855V7.22322V7.18783V7.15238V7.11689V7.08135V7.04575V7.0101V7H20V20V22H18H6H4V20V7H6ZM11 7V8V17V18H9V17V8V7H11ZM15 8V7H13V8V17V18H15V17V8Z" fill="#606060"/>
</svg>
