<svg width="48" height="48" viewBox="0 0 48 48" fill="none" xmlns="http://www.w3.org/2000/svg">
<path d="M23.5242 4V11.619M32.5718 7.33333L28.7623 11.1429M14.4766 7.33333L17.8099 11.1429" stroke="#303030" stroke-width="2" stroke-linejoin="bevel"/>
<path d="M18.2943 22.5392L18.7752 23.4159H18.7752L18.2943 22.5392ZM23.5237 23.6855L22.819 24.395L23.5237 25.095L24.2285 24.395L23.5237 23.6855ZM16.8384 28.2261L15.8864 28.532L15.9017 28.5798L15.9218 28.6257L16.8384 28.2261ZM23.5237 35.1946L23.079 36.0902L23.5237 36.311L23.9684 36.0902L23.5237 35.1946ZM30.209 28.2261L31.1257 28.6257L31.1457 28.5798L31.161 28.532L30.209 28.2261ZM28.7531 22.5392L28.2722 23.4159L28.7531 22.5392ZM18.7752 23.4159C19.6047 22.9609 20.4376 23.0411 21.1988 23.3438C21.9791 23.6543 22.5916 24.1691 22.819 24.395L24.2285 22.9761C23.8748 22.6247 23.0423 21.9248 21.938 21.4855C20.8146 21.0386 19.3234 20.8341 17.8134 21.6624L18.7752 23.4159ZM17.7905 27.9201C17.5489 27.1683 17.3179 26.2719 17.3963 25.4381C17.4679 24.6767 17.7932 23.9546 18.7752 23.4159L17.8134 21.6624C16.1806 22.558 15.5311 23.9114 15.4051 25.2508C15.2859 26.518 15.6344 27.7479 15.8864 28.532L17.7905 27.9201ZM23.9684 34.2989C22.9977 33.8169 21.7066 32.8252 20.5017 31.5996C19.2969 30.3739 18.2697 29.0068 17.7551 27.8264L15.9218 28.6257C16.5721 30.1174 17.7818 31.6856 19.0754 33.0016C20.3691 34.3176 21.8381 35.4741 23.079 36.0902L23.9684 34.2989ZM23.9684 36.0902C25.2094 35.4741 26.6784 34.3176 27.972 33.0016C29.2656 31.6856 30.4753 30.1174 31.1257 28.6257L29.2923 27.8264C28.7777 29.0068 27.7505 30.3739 26.5457 31.5996C25.3409 32.8252 24.0497 33.8169 23.079 34.2989L23.9684 36.0902ZM31.161 28.532C31.4131 27.7479 31.7615 26.518 31.6423 25.2508C31.5163 23.9114 30.8668 22.558 29.2341 21.6624L28.2722 23.4159C29.2543 23.9546 29.5795 24.6767 29.6511 25.4381C29.7296 26.2719 29.4986 27.1683 29.257 27.9201L31.161 28.532ZM29.2341 21.6624C27.7241 20.8341 26.2329 21.0386 25.1094 21.4855C24.0051 21.9248 23.1727 22.6247 22.819 22.9761L24.2285 24.395C24.4558 24.1691 25.0683 23.6543 25.8487 23.3438C26.6098 23.0411 27.4428 22.9609 28.2722 23.4159L29.2341 21.6624Z" fill="#303030"/>
<path d="M5.42773 15.9048L13.523 23.0476" stroke="#303030" stroke-width="2" stroke-linejoin="bevel"/>
<path d="M34.4766 34.4761L42.5718 41.6189" stroke="#303030" stroke-width="2" stroke-linejoin="bevel"/>
<path d="M42.5723 15.9048L34.477 23.0476" stroke="#303030" stroke-width="2" stroke-linejoin="bevel"/>
<path d="M13.5234 34.4761L5.4282 41.6189" stroke="#303030" stroke-width="2" stroke-linejoin="bevel"/>
<rect x="5" y="15.4761" width="38" height="26.5714" stroke="#303030" stroke-width="2"/>
</svg>
