<svg width="33" height="32" viewBox="0 0 33 32" fill="none" xmlns="http://www.w3.org/2000/svg">
<path fill-rule="evenodd" clip-rule="evenodd" d="M12.047 27.6494C16.031 27.6494 19.2607 24.4197 19.2607 20.4357C19.2607 16.4517 16.031 13.222 12.047 13.222C8.06301 13.222 4.83333 16.4517 4.83333 20.4357C4.83333 24.4197 8.06301 27.6494 12.047 27.6494ZM12.047 28.9827C16.7674 28.9827 20.594 25.1561 20.594 20.4357C20.594 15.7153 16.7674 11.8887 12.047 11.8887C7.32663 11.8887 3.5 15.7153 3.5 20.4357C3.5 25.1561 7.32663 28.9827 12.047 28.9827Z" fill="currentColor"/>
<path fill-rule="evenodd" clip-rule="evenodd" d="M22.3034 5.03402C18.3288 5.03402 15.1068 8.25604 15.1068 12.2306C15.1068 12.6014 15.1348 12.9652 15.1886 13.3202L13.8704 13.5203C13.8065 13.0993 13.7734 12.6686 13.7734 12.2306C13.7734 7.51966 17.5924 3.70068 22.3034 3.70068C27.0143 3.70068 30.8333 7.51966 30.8333 12.2306C30.8333 16.9415 27.0143 20.7605 22.3034 20.7605C21.2685 20.7605 20.2753 20.5759 19.3558 20.2374L19.8166 18.9862C20.5907 19.2712 21.4281 19.4272 22.3034 19.4272C26.2779 19.4272 29.4999 16.2052 29.4999 12.2306C29.4999 8.25604 26.2779 5.03402 22.3034 5.03402Z" fill="currentColor"/>
<path fill-rule="evenodd" clip-rule="evenodd" d="M10.841 8.95915L8.44531 5.5653L9.5346 4.79639L11.9303 8.19024L10.841 8.95915Z" fill="currentColor"/>
<path fill-rule="evenodd" clip-rule="evenodd" d="M12.8259 7.00096L12.227 3.80675L13.5375 3.56104L14.1364 6.75525L12.8259 7.00096ZM9.37104 10.7586L5.67773 8.76222L6.31176 7.58928L10.0051 9.58566L9.37104 10.7586Z" fill="currentColor"/>
<path d="M17.4437 17.6432C17.4437 18.0209 17.1376 18.327 16.7599 18.327C16.3823 18.327 16.0762 18.0209 16.0762 17.6432C16.0762 17.2656 16.3823 16.9595 16.7599 16.9595C17.1376 16.9595 17.4437 17.2656 17.4437 17.6432Z" fill="currentColor"/>
<path fill-rule="evenodd" clip-rule="evenodd" d="M16.7599 16.9937C16.4012 16.9937 16.1104 17.2845 16.1104 17.6432C16.1104 18.002 16.4012 18.2928 16.7599 18.2928C17.1187 18.2928 17.4095 18.002 17.4095 17.6432C17.4095 17.2845 17.1187 16.9937 16.7599 16.9937ZM16.7599 18.327C17.1376 18.327 17.4437 18.0209 17.4437 17.6432C17.4437 17.2656 17.1376 16.9595 16.7599 16.9595C16.3823 16.9595 16.0762 17.2656 16.0762 17.6432C16.0762 18.0209 16.3823 18.327 16.7599 18.327Z" fill="currentColor"/>
<path fill-rule="evenodd" clip-rule="evenodd" d="M23.5505 14.9101C23.2141 15.5123 22.5704 15.8073 21.6101 15.8073C20.7193 15.8073 20.1064 15.4971 19.7592 14.926C19.4464 14.4113 19.4101 13.7707 19.4102 13.256L20.4102 13.256C20.4101 13.7669 20.459 14.1519 20.6138 14.4065C20.7342 14.6046 20.9713 14.8073 21.6101 14.8073C22.3686 14.8073 22.5842 14.5894 22.6775 14.4224C22.7398 14.3109 22.782 14.1598 22.8051 13.9536C22.8283 13.7459 22.8289 13.5182 22.829 13.2559L23.829 13.2561L23.829 13.2702C23.8289 13.5172 23.8288 13.7968 23.7989 14.0647C23.7682 14.3394 23.7031 14.637 23.5505 14.9101Z" fill="currentColor"/>
<path d="M19.2269 11.2052C19.2269 11.5829 18.9208 11.889 18.5431 11.889C18.1655 11.889 17.8594 11.5829 17.8594 11.2052C17.8594 10.8276 18.1655 10.5215 18.5431 10.5215C18.9208 10.5215 19.2269 10.8276 19.2269 11.2052Z" fill="currentColor"/>
<path fill-rule="evenodd" clip-rule="evenodd" d="M18.5431 10.5557C18.1844 10.5557 17.8936 10.8465 17.8936 11.2052C17.8936 11.564 18.1844 11.8548 18.5431 11.8548C18.9019 11.8548 19.1927 11.564 19.1927 11.2052C19.1927 10.8465 18.9019 10.5557 18.5431 10.5557ZM18.5431 11.889C18.9208 11.889 19.2269 11.5829 19.2269 11.2052C19.2269 10.8276 18.9208 10.5215 18.5431 10.5215C18.1655 10.5215 17.8594 10.8276 17.8594 11.2052C17.8594 11.5829 18.1655 11.889 18.5431 11.889Z" fill="currentColor"/>
<path d="M25.3812 11.2052C25.3812 11.5829 25.0751 11.889 24.6974 11.889C24.3198 11.889 24.0137 11.5829 24.0137 11.2052C24.0137 10.8276 24.3198 10.5215 24.6974 10.5215C25.0751 10.5215 25.3812 10.8276 25.3812 11.2052Z" fill="currentColor"/>
<path fill-rule="evenodd" clip-rule="evenodd" d="M24.6974 10.5557C24.3387 10.5557 24.0479 10.8465 24.0479 11.2052C24.0479 11.564 24.3387 11.8548 24.6974 11.8548C25.0562 11.8548 25.347 11.564 25.347 11.2052C25.347 10.8465 25.0562 10.5557 24.6974 10.5557ZM24.6974 11.889C25.0751 11.889 25.3812 11.5829 25.3812 11.2052C25.3812 10.8276 25.0751 10.5215 24.6974 10.5215C24.3198 10.5215 24.0137 10.8276 24.0137 11.2052C24.0137 11.5829 24.3198 11.889 24.6974 11.889Z" fill="currentColor"/>
<path d="M12.3382 17.6432C12.3382 18.0209 12.0321 18.327 11.6545 18.327C11.2768 18.327 10.9707 18.0209 10.9707 17.6432C10.9707 17.2656 11.2768 16.9595 11.6545 16.9595C12.0321 16.9595 12.3382 17.2656 12.3382 17.6432Z" fill="currentColor"/>
<path fill-rule="evenodd" clip-rule="evenodd" d="M11.6545 16.9937C11.2957 16.9937 11.0049 17.2845 11.0049 17.6432C11.0049 18.002 11.2957 18.2928 11.6545 18.2928C12.0132 18.2928 12.304 18.002 12.304 17.6432C12.304 17.2845 12.0132 16.9937 11.6545 16.9937ZM11.6545 18.327C12.0321 18.327 12.3382 18.0209 12.3382 17.6432C12.3382 17.2656 12.0321 16.9595 11.6545 16.9595C11.2768 16.9595 10.9707 17.2656 10.9707 17.6432C10.9707 18.0209 11.2768 18.327 11.6545 18.327Z" fill="currentColor"/>
<path fill-rule="evenodd" clip-rule="evenodd" d="M11.2051 19.5938H16.9914V20.0938C16.9914 20.5467 16.7767 21.1749 16.32 21.6905C15.8454 22.2263 15.1059 22.645 14.0712 22.645C13.037 22.645 12.3077 22.2299 11.8442 21.6897C11.398 21.1697 11.2051 20.5419 11.2051 20.0938V19.5938ZM12.3258 20.5938C12.3887 20.7394 12.479 20.8939 12.6031 21.0385C12.8797 21.3609 13.3334 21.645 14.0712 21.645C14.8084 21.645 15.279 21.3575 15.5715 21.0274C15.6978 20.8848 15.7908 20.7344 15.8568 20.5938H12.3258Z" fill="currentColor"/>
</svg>
