<svg width="33" height="32" viewBox="0 0 33 32" fill="none" xmlns="http://www.w3.org/2000/svg">
<path fill-rule="evenodd" clip-rule="evenodd" d="M18.3625 15.984L13.692 19.6034L13.4191 19.7292L8.26888 20.7985V26.2738H18.6126L25.846 20.5208L25.9487 20.4535C26.1298 20.3575 26.3975 20.1612 26.5788 19.9173C26.75 19.687 26.7985 19.4853 26.741 19.2884C26.7304 19.2823 26.7097 19.2722 26.674 19.2615C26.5463 19.2231 26.3319 19.2077 26.0321 19.2383C25.4672 19.296 24.8045 19.494 24.3433 19.6721L19.5805 22.7804L19.2161 22.8888H16.6207L16.1356 22.6795L15.0233 21.4999L15.097 20.5178L19.2413 17.2695C19.2845 17.1658 19.3295 17.0202 19.3454 16.862C19.3671 16.6462 19.3309 16.4613 19.228 16.3158C19.1251 16.1703 18.9628 16.0746 18.752 16.0231C18.6106 15.9885 18.4711 15.9804 18.3625 15.984ZM19.0685 14.7278C19.488 14.8303 19.9746 15.0623 20.3166 15.5459C20.6586 16.0295 20.7152 16.5656 20.672 16.9953C20.6294 17.4191 20.4861 17.7926 20.3526 18.0286L20.1836 18.225L16.4945 21.1166L16.9083 21.5554H19.0178L23.672 18.5181L23.79 18.457C24.3163 18.2476 25.1396 17.9892 25.8966 17.9119C26.2705 17.8737 26.6864 17.873 27.0576 17.9846C27.4495 18.1023 27.8499 18.3691 28.0093 18.8765C28.2429 19.6195 27.9808 20.2662 27.6488 20.7128C27.343 21.1241 26.9388 21.427 26.6313 21.5998L19.2603 27.4623L18.8454 27.6072H7.60221L6.93555 26.9405V20.256L7.46669 19.6033L12.9971 18.455L17.6954 14.8141L17.9878 14.6846C18.2548 14.6374 18.6547 14.6267 19.0685 14.7278Z" fill="#818181"/>
<path fill-rule="evenodd" clip-rule="evenodd" d="M6.95299 19.3846H4.83333V27.6581H6.95299V19.3846ZM3.5 18.0513V28.9914H8.28632V18.0513H3.5Z" fill="#818181"/>
<path fill-rule="evenodd" clip-rule="evenodd" d="M21.2122 3.93375C20.4309 3.62297 19.5379 3.5282 18.645 4.01797C17.6104 4.58551 17.252 5.36847 17.1755 6.18135C17.0957 7.02966 17.3257 7.92211 17.5551 8.64105C18.0715 9.80893 19.074 11.1341 20.2303 12.3104C21.2809 13.3791 22.409 14.2749 23.3304 14.7936C24.2518 14.2749 25.3799 13.3791 26.4304 12.3104C27.5867 11.1341 28.5892 9.80892 29.1056 8.64104C29.335 7.92211 29.565 7.02965 29.4852 6.18135C29.4088 5.36847 29.0503 4.58551 28.0157 4.01797C27.1228 3.5282 26.2298 3.62297 25.4485 3.93375C24.6545 4.24963 24.0362 4.76939 23.8002 5.00382L23.3304 5.47051L22.8605 5.00382C22.6245 4.76939 22.0062 4.24963 21.2122 3.93375ZM23.3304 3.64546C22.9345 3.33233 22.3734 2.96074 21.705 2.69485C20.6822 2.28797 19.3504 2.11031 18.0038 2.84896C16.5354 3.65445 15.9607 4.85825 15.848 6.05646C15.7398 7.20648 16.0563 8.33536 16.2961 9.08132L16.3063 9.11314L16.3197 9.14378C16.9225 10.5265 18.054 11.9984 19.2794 13.2451C20.5049 14.4917 21.8853 15.5749 23.0339 16.1452L23.3304 16.2924L23.6268 16.1452C24.7755 15.5749 26.1558 14.4917 27.3813 13.2451C28.6068 11.9984 29.7382 10.5265 30.3411 9.14378L30.3544 9.11314L30.3646 9.08132C30.6044 8.33536 30.9209 7.20648 30.8127 6.05646C30.7 4.85825 30.1253 3.65445 28.6569 2.84896C27.3103 2.11031 25.9785 2.28797 24.9557 2.69485C24.2873 2.96074 23.7262 3.33233 23.3304 3.64546Z" fill="#818181"/>
</svg>
