<svg width="48" height="48" viewBox="0 0 48 48" fill="none" xmlns="http://www.w3.org/2000/svg">
<path d="M22.6788 8.32836L22.1979 7.4516L22.6788 8.32836ZM30 9.93326L29.2953 10.6427L30 11.3428L30.7047 10.6427L30 9.93326ZM20.6406 16.29L19.6886 16.596L19.7039 16.6437L19.7239 16.6897L20.6406 16.29ZM30 26.0459L29.5553 26.9416L30 27.1624L30.4447 26.9416L30 26.0459ZM39.3594 16.29L40.2761 16.6897L40.2961 16.6437L40.3114 16.596L39.3594 16.29ZM37.3212 8.32836L37.8021 7.4516V7.4516L37.3212 8.32836ZM23.1597 9.20511C24.4571 8.49349 25.7549 8.63053 26.8929 9.08325C28.0502 9.54361 28.9517 10.3014 29.2953 10.6427L30.7047 9.22379C30.2348 8.75703 29.1134 7.81412 27.6322 7.22489C26.1318 6.62803 24.1758 6.36665 22.1979 7.4516L23.1597 9.20511ZM21.5926 15.9841C21.2523 14.925 20.9054 13.6034 21.0234 12.3495C21.1346 11.1679 21.6547 10.0307 23.1597 9.20511L22.1979 7.4516C20.0422 8.63408 19.1977 10.4025 19.0322 12.1621C18.8734 13.8495 19.3378 15.5046 19.6886 16.596L21.5926 15.9841ZM30.4447 25.1502C29.0317 24.4487 27.1885 23.0273 25.484 21.2933C23.7794 19.5593 22.3049 17.6052 21.5573 15.8904L19.7239 16.6897C20.6073 18.7158 22.2643 20.871 24.0577 22.6954C25.851 24.5197 27.872 26.1059 29.5553 26.9416L30.4447 25.1502ZM30.4447 26.9416C32.128 26.1059 34.149 24.5197 35.9423 22.6954C37.7357 20.871 39.3927 18.7158 40.2761 16.6897L38.4427 15.8904C37.6951 17.6052 36.2206 19.5593 34.516 21.2933C32.8115 23.0273 30.9683 24.4487 29.5553 25.1502L30.4447 26.9416ZM40.3114 16.596C40.6622 15.5046 41.1266 13.8495 40.9678 12.1621C40.8023 10.4025 39.9578 8.63408 37.8021 7.4516L36.8403 9.20511C38.3453 10.0307 38.8654 11.1679 38.9766 12.3495C39.0946 13.6034 38.7477 14.925 38.4074 15.9841L40.3114 16.596ZM37.8021 7.4516C35.8242 6.36665 33.8682 6.62803 32.3678 7.22489C30.8866 7.81412 29.7652 8.75703 29.2953 9.2238L30.7047 10.6427C31.0483 10.3014 31.9498 9.54361 33.1071 9.08325C34.2451 8.63053 35.5429 8.49349 36.8403 9.20511L37.8021 7.4516Z" fill="#303030"/>
<path d="M4 24H10.0451V42.0952H4M32.0426 32.3774V32.3774C31.2956 31.5255 30.2175 31.037 29.0844 31.037H26.2779C25.1114 31.037 23.973 30.6801 23.0153 30.0141L20.4158 28.2063C19.4582 27.5404 18.3197 27.1834 17.1533 27.1834H14.495M10.0451 36.0635H13.2944C14.1402 36.0635 14.9755 36.2513 15.7399 36.6132L23.3253 40.2051C24.0897 40.5671 24.925 40.7549 25.7708 40.7549H29.2461C30.3059 40.7549 31.3449 40.4601 32.2468 39.9036L42.0651 33.8452C43.0821 33.2176 44.0257 32.2865 43.9993 31.0917C43.9901 30.6775 43.8896 30.2916 43.6291 30.0317C42.7895 29.194 41.782 28.8589 40.9424 29.194L32.7678 33.63C31.8539 34.1259 30.8221 34.3631 29.7834 34.316L20.2882 33.8854" stroke="#303030" stroke-width="2" stroke-linejoin="bevel"/>
</svg>
